<?xml version="1.0" standalone="no"?><!DOCTYPE svg PUBLIC "-//W3C//DTD SVG 1.1//EN" "http://www.w3.org/Graphics/SVG/1.1/DTD/svg11.dtd"><svg t="1560917078245" class="icon" style="" viewBox="0 0 1027 1024" version="1.1" xmlns="http://www.w3.org/2000/svg" p-id="2310" xmlns:xlink="http://www.w3.org/1999/xlink" width="200.5859375" height="200"><defs><style type="text/css"></style></defs><path d="M 983.823 313.328 a 511.939 511.939 0 1 0 40.1361 198.706 a 508.788 508.788 0 0 0 -40.1361 -198.706 Z M 513.501 964.407 C 264.059 964.407 61.1278 761.476 61.1278 512.033 S 264.059 59.6598 513.501 59.6598 s 452.374 202.931 452.374 452.374 s -202.931 452.374 -452.374 452.374 Z" fill="#231815" p-id="2311"></path><path d="M 705.44 490.252 H 535.283 V 320.08 a 21.7815 21.7815 0 0 0 -43.5631 0 v 170.172 H 321.548 a 21.7815 21.7815 0 0 0 0 43.5631 h 170.172 v 170.157 a 21.7815 21.7815 0 1 0 43.5631 0 V 533.815 h 170.157 a 21.7815 21.7815 0 1 0 0 -43.5631 Z" fill="#231815" p-id="2312"></path></svg>