<?xml version="1.0" standalone="no"?><!DOCTYPE svg PUBLIC "-//W3C//DTD SVG 1.1//EN" "http://www.w3.org/Graphics/SVG/1.1/DTD/svg11.dtd"><svg t="1560930812543" class="icon" style="" viewBox="0 0 1024 1024" version="1.1" xmlns="http://www.w3.org/2000/svg" p-id="3473" xmlns:xlink="http://www.w3.org/1999/xlink" width="200" height="200"><defs><style type="text/css"></style></defs><path d="M 802.81 120.529 A 411.212 411.212 0 0 0 100.752 411.299 c 0 322.977 246.281 523.435 352.166 594.611 a 105.415 105.415 0 0 0 118.091 0 C 676.955 934.734 923.176 734.306 923.176 411.299 A 408.513 408.513 0 0 0 802.81 120.529 Z m -265.645 835.04 a 44.9893 44.9893 0 0 1 -50.4026 0 C 388.93 889.82 161.405 705.178 161.405 411.299 C 161.405 217.998 318.663 60.74 511.964 60.74 s 350.559 157.258 350.559 350.559 c 0 293.879 -227.524 478.522 -325.358 544.269 Z" fill="#231815" p-id="3474"></path><path d="M 511.964 231.645 A 152.982 152.982 0 1 0 664.931 384.627 a 153.149 153.149 0 0 0 -152.967 -152.982 Z m 0 260.459 a 107.492 107.492 0 1 1 107.477 -107.477 a 107.659 107.659 0 0 1 -107.477 107.477 Z" fill="#231815" p-id="3475"></path></svg>