<?xml version="1.0" standalone="no"?><!DOCTYPE svg PUBLIC "-//W3C//DTD SVG 1.1//EN" "http://www.w3.org/Graphics/SVG/1.1/DTD/svg11.dtd"><svg t="1560850809737" class="icon" style="" viewBox="0 0 1024 1024" version="1.1" xmlns="http://www.w3.org/2000/svg" p-id="9516" xmlns:xlink="http://www.w3.org/1999/xlink" width="200" height="200"><defs><style type="text/css"></style></defs><path d="M96 64h360c17.673 0 32 14.327 32 32v333c0 17.673-14.327 32-32 32H96c-17.673 0-32-14.327-32-32V96c0-17.673 14.327-32 32-32z m40 64a8 8 0 0 0-8 8v253a8 8 0 0 0 8 8h280a8 8 0 0 0 8-8V136a8 8 0 0 0-8-8H136zM96 509h360c17.673 0 32 14.327 32 32v387c0 17.673-14.327 32-32 32H96c-17.673 0-32-14.327-32-32V541c0-17.673 14.327-32 32-32z m40 64a8 8 0 0 0-8 8v307a8 8 0 0 0 8 8h280a8 8 0 0 0 8-8V581a8 8 0 0 0-8-8H136zM568 64h360c17.673 0 32 14.327 32 32v480c0 17.673-14.327 32-32 32H568c-17.673 0-32-14.327-32-32V96c0-17.673 14.327-32 32-32z m40 64a8 8 0 0 0-8 8v400a8 8 0 0 0 8 8h280a8 8 0 0 0 8-8V136a8 8 0 0 0-8-8H608z m-40 528h360c17.673 0 32 14.327 32 32v240c0 17.673-14.327 32-32 32H568c-17.673 0-32-14.327-32-32V688c0-17.673 14.327-32 32-32z m40 64a8 8 0 0 0-8 8v160a8 8 0 0 0 8 8h280a8 8 0 0 0 8-8V728a8 8 0 0 0-8-8H608z" p-id="9517"></path></svg>