<?xml version="1.0" standalone="no"?><!DOCTYPE svg PUBLIC "-//W3C//DTD SVG 1.1//EN" "http://www.w3.org/Graphics/SVG/1.1/DTD/svg11.dtd"><svg t="1560917122209" class="icon" style="" viewBox="0 0 1041 1024" version="1.1" xmlns="http://www.w3.org/2000/svg" p-id="2892" xmlns:xlink="http://www.w3.org/1999/xlink" width="203.3203125" height="200"><defs><style type="text/css"></style></defs><path d="M 341.478 18.532 H 92.5959 a 92.6885 92.6885 0 0 0 -92.5959 92.5959 V 360.01 a 92.7039 92.7039 0 0 0 92.5959 92.5959 h 248.882 a 92.7039 92.7039 0 0 0 92.5959 -92.5959 V 111.128 a 92.6885 92.6885 0 0 0 -92.5959 -92.5959 Z M 341.478 589.926 H 92.5959 a 92.6885 92.6885 0 0 0 -92.5959 92.5959 v 248.882 a 92.6885 92.6885 0 0 0 92.5959 92.5959 h 248.882 a 92.6885 92.6885 0 0 0 92.5959 -92.5959 V 682.522 a 92.6885 92.6885 0 0 0 -92.5959 -92.5959 Z M 683.913 420.46 a 172.306 172.306 0 0 0 244.098 0 L 959.432 389.024 l 31.4209 -31.4209 a 172.846 172.846 0 0 0 0 -244.114 l -31.4209 -31.39 l -31.4209 -31.4209 a 172.306 172.306 0 0 0 -244.098 0 L 652.492 82.0991 l -31.4209 31.4054 a 172.846 172.846 0 0 0 0 244.114 L 652.492 389.024 Z M 930.404 589.926 H 681.521 a 92.6885 92.6885 0 0 0 -92.5959 92.5959 v 248.882 a 92.6885 92.6885 0 0 0 92.5959 92.5959 h 248.882 a 92.6885 92.6885 0 0 0 92.5959 -92.5959 V 682.522 a 92.6885 92.6885 0 0 0 -92.5959 -92.5959 Z" fill="#231815" p-id="2893"></path></svg>