<?xml version="1.0" standalone="no"?><!DOCTYPE svg PUBLIC "-//W3C//DTD SVG 1.1//EN" "http://www.w3.org/Graphics/SVG/1.1/DTD/svg11.dtd"><svg t="1561116669259" class="icon" style="" viewBox="0 0 1026 1024" version="1.1" xmlns="http://www.w3.org/2000/svg" p-id="2557" xmlns:xlink="http://www.w3.org/1999/xlink" width="200.390625" height="200"><defs><style type="text/css"></style></defs><path d="M 983.816 313.313 a 511.939 511.939 0 1 0 40.1421 198.72 a 508.612 508.612 0 0 0 -40.1421 -198.72 Z M 513.443 964.435 C 264.005 964.435 61.0567 761.487 61.0567 512.034 S 264.005 59.6468 513.443 59.6468 s 452.401 202.948 452.401 452.387 s -202.948 452.401 -452.401 452.401 Z" fill="#231815" p-id="2558"></path><path d="M 734.145 389.326 L 513.153 610.275 a 49.6001 49.6001 0 0 1 -70.1433 0 l -95.6262 -95.6262 a 21.7927 21.7927 0 0 0 -30.8294 30.8148 l 95.6408 95.6262 a 93.1564 93.1564 0 0 0 131.773 0 L 764.96 420.141 a 21.7927 21.7927 0 0 0 -30.8148 -30.8148 Z" fill="#231815" p-id="2559"></path></svg>