<?xml version="1.0" standalone="no"?><!DOCTYPE svg PUBLIC "-//W3C//DTD SVG 1.1//EN" "http://www.w3.org/Graphics/SVG/1.1/DTD/svg11.dtd"><svg t="1561281125641" class="icon" style="" viewBox="0 0 1235 1024" version="1.1" xmlns="http://www.w3.org/2000/svg" p-id="2827" xmlns:xlink="http://www.w3.org/1999/xlink" width="241.2109375" height="200"><defs><style type="text/css"></style></defs><path d="M572.323537 512L892.148793 831.825256c11.656766 11.656766 11.656766 30.55665 0 42.213416s-30.55665 11.656766-42.213416 0L530.110121 554.213416 210.284865 874.038672c-11.656766 11.656766-30.55665 11.656766-42.213416 0s-11.656766-30.55665 0-42.213416L487.896705 512 168.071449 192.174744c-11.656766-11.656766-11.656766-30.55665 0-42.213416s30.55665-11.656766 42.213416 0l319.825256 319.825256L849.935377 149.961328c11.656766-11.656766 30.55665-11.656766 42.213416 0s11.656766 30.55665 0 42.213416l-319.825256 319.825256z" p-id="2828"></path></svg>