<?xml version="1.0" standalone="no"?><!DOCTYPE svg PUBLIC "-//W3C//DTD SVG 1.1//EN" "http://www.w3.org/Graphics/SVG/1.1/DTD/svg11.dtd"><svg t="1561109422670" class="icon" style="" viewBox="0 0 1027 1024" version="1.1" xmlns="http://www.w3.org/2000/svg" p-id="2221" xmlns:xlink="http://www.w3.org/1999/xlink" width="200.5859375" height="200"><defs><style type="text/css"></style></defs><path d="M 983.838 313.362 a 511.939 511.939 0 1 0 40.1219 198.663 a 508.903 508.903 0 0 0 -40.1219 -198.663 Z m -470.248 650.927 C 264.216 964.289 61.3403 761.399 61.3403 512.024 S 264.216 59.7744 513.59 59.7744 s 452.264 202.875 452.264 452.25 S 762.965 964.289 513.59 964.289 Z" fill="#cdcdcd" p-id="2222"></path><path d="M 664.694 360.921 a 21.7896 21.7896 0 0 0 -30.8105 0 l -120.293 120.293 l -120.278 -120.293 a 21.7896 21.7896 0 1 0 -30.825 30.825 l 120.293 120.278 l -120.293 120.293 a 21.7896 21.7896 0 1 0 30.825 30.8105 l 120.278 -120.278 l 120.293 120.278 a 21.7896 21.7896 0 0 0 30.8105 -30.8105 l -120.278 -120.293 l 120.278 -120.278 a 21.7896 21.7896 0 0 0 0 -30.825 Z" fill="#cdcdcd" p-id="2223"></path></svg>