<?xml version="1.0" standalone="no"?><!DOCTYPE svg PUBLIC "-//W3C//DTD SVG 1.1//EN" "http://www.w3.org/Graphics/SVG/1.1/DTD/svg11.dtd"><svg t="1561549144451" class="icon" viewBox="0 0 1241 1024" version="1.1" xmlns="http://www.w3.org/2000/svg" p-id="4939" xmlns:xlink="http://www.w3.org/1999/xlink" width="242.3828125" height="200"><defs><style type="text/css"></style></defs><path d="M 1030.5 0 H 210.933 A 211.178 211.178 0 0 0 0 210.933 v 469.248 a 211.178 211.178 0 0 0 210.933 210.933 h 247.892 L 562.32 999.079 a 81.2597 81.2597 0 0 0 58.386 24.9206 a 81.2973 81.2973 0 0 0 58.4048 -24.9206 l 103.42 -107.871 h 247.892 a 211.178 211.178 0 0 0 211.009 -211.027 V 210.933 A 211.178 211.178 0 0 0 1030.5 0 Z m 135.815 680.181 a 135.965 135.965 0 0 1 -135.815 135.815 H 766.512 a 37.5594 37.5594 0 0 0 -27.1179 11.5683 l -114.556 119.439 a 5.78414 5.78414 0 0 1 -8.35696 0 l -114.556 -119.439 a 37.5594 37.5594 0 0 0 -27.1179 -11.5683 H 210.933 A 135.965 135.965 0 0 1 75.1188 680.181 V 210.933 A 135.965 135.965 0 0 1 210.933 75.1188 h 819.564 a 135.965 135.965 0 0 1 135.815 135.815 Z" fill="#231815" p-id="4940"></path><path d="M 383.425 391.669 a 46.9492 46.9492 0 1 0 46.9492 46.9492 a 46.9492 46.9492 0 0 0 -46.9492 -46.9492 Z m 0 56.3391 a 9.38984 9.38984 0 1 1 9.38984 -9.38984 a 9.38984 9.38984 0 0 1 -9.38984 9.38984 Z M 638.059 391.669 a 46.9492 46.9492 0 1 0 46.9492 46.9492 a 46.9492 46.9492 0 0 0 -46.9492 -46.9492 Z m 0 56.3391 a 9.38984 9.38984 0 1 1 9.38984 -9.38984 a 9.38984 9.38984 0 0 1 -9.38984 9.38984 Z M 892.692 391.669 a 46.9492 46.9492 0 1 0 46.9492 46.9492 a 46.9492 46.9492 0 0 0 -46.9492 -46.9492 Z m 0 56.3391 a 9.38984 9.38984 0 1 1 9.38984 -9.38984 a 9.38984 9.38984 0 0 1 -9.38984 9.38984 Z" fill="#231815" p-id="4941"></path></svg>