<?xml version="1.0" standalone="no"?><!DOCTYPE svg PUBLIC "-//W3C//DTD SVG 1.1//EN" "http://www.w3.org/Graphics/SVG/1.1/DTD/svg11.dtd"><svg t="1560850884047" class="icon" style="" viewBox="0 0 1024 1024" version="1.1" xmlns="http://www.w3.org/2000/svg" p-id="2348" xmlns:xlink="http://www.w3.org/1999/xlink" width="200" height="200"><defs><style type="text/css"></style></defs><path d="M512 960C264.576 960 64 759.424 64 512S264.576 64 512 64s448 200.576 448 448-200.576 448-448 448z m0-64c212.077 0 384-171.923 384-384S724.077 128 512 128 128 299.923 128 512s171.923 384 384 384zM319 442c-26.51 0-48-21.49-48-48s21.49-48 48-48 48 21.49 48 48-21.49 48-48 48z m387 0c-26.51 0-48-21.49-48-48s21.49-48 48-48 48 21.49 48 48-21.49 48-48 48zM515.9 756.673c109.335 0 185.242-53.843 240.138-136.008a30.646 30.646 0 0 0 1.965-30.6 30.685 30.685 0 0 0-25.536-17.002 30.69 30.69 0 0 0-27.502 13.6C660.312 653.405 601.208 695.329 515.9 695.329c-85.307 0-144.412-41.924-189.065-108.666-9.564-13.647-28.281-17.168-42.156-7.93-13.875 9.237-17.834 27.854-8.916 41.932 54.93 82.165 130.802 136.008 240.137 136.008z" p-id="2349"></path></svg>