<?xml version="1.0" standalone="no"?><!DOCTYPE svg PUBLIC "-//W3C//DTD SVG 1.1//EN" "http://www.w3.org/Graphics/SVG/1.1/DTD/svg11.dtd"><svg t="1561544491348" class="icon" viewBox="0 0 1212 1024" version="1.1" xmlns="http://www.w3.org/2000/svg" p-id="1976" xmlns:xlink="http://www.w3.org/1999/xlink" width="236.71875" height="200"><defs><style type="text/css"></style></defs><path d="M 861.788 0 a 351.692 351.692 0 0 0 -255.519 110.392 A 351.692 351.692 0 0 0 350.75 0 C 157.366 0 0 157.366 0 350.75 c 0 106.149 41.4865 208.828 123.403 305.19 c 35.0938 41.3168 78.3341 82.973 132.172 127.25 a 1899.27 1899.27 0 0 0 160.289 117.633 L 606.269 1023.96 l 190.461 -123.121 a 1894.69 1894.69 0 0 0 160.289 -117.633 c 53.8193 -44.3151 97.0596 -85.9336 132.172 -127.25 C 1171.05 559.634 1212.54 456.955 1212.54 350.75 C 1212.54 157.366 1055.15 0 861.788 0 Z m 169.944 607.212 c -32.1898 37.8659 -72.2997 76.4106 -122.574 117.859 a 1818.94 1818.94 0 0 1 -153.236 112.523 l -149.653 96.5881 l -149.502 -96.6447 A 1817.69 1817.69 0 0 1 303.606 725.014 c -50.3307 -41.4865 -90.516 -79.9935 -122.574 -117.859 C 110.901 524.804 75.43 438.569 75.43 350.75 c 0 -151.841 123.535 -275.32 275.32 -275.32 a 276.093 276.093 0 0 1 224.706 116.143 l 30.7566 43.3723 l 30.7377 -43.3723 A 276.112 276.112 0 0 1 861.788 75.43 c 151.859 0 275.32 123.535 275.32 275.32 c 0 87.8194 -35.4898 174.055 -105.451 256.462 Z" fill="#231815" p-id="1977"></path><path d="M 533.498 718.829 a 1688.78 1688.78 0 0 1 -140.149 -102.924 c -43.806 -36.0744 -78.0701 -68.8676 -104.772 -100.284 a 28.2863 28.2863 0 0 0 -43.1082 36.6401 c 28.8897 33.9435 65.4921 69.0939 111.919 107.318 a 1756.95 1756.95 0 0 0 145.391 106.771 a 28.2863 28.2863 0 0 0 30.7189 -47.5209 Z" fill="#231815" p-id="1978"></path></svg>