<?xml version="1.0" standalone="no"?><!DOCTYPE svg PUBLIC "-//W3C//DTD SVG 1.1//EN" "http://www.w3.org/Graphics/SVG/1.1/DTD/svg11.dtd"><svg t="1561449544741" class="icon" viewBox="0 0 1024 1024" version="1.1" xmlns="http://www.w3.org/2000/svg" p-id="3574" xmlns:xlink="http://www.w3.org/1999/xlink" width="200" height="200"><defs><style type="text/css"></style></defs><path d="M837.673 700.892a25.876 25.876 0 0 1-18.427-7.629L512 386.002 204.754 693.248c-4.92 4.92-11.464 7.624-18.422 7.624s-13.501-2.704-18.427-7.624a26.112 26.112 0 0 1 0.005-36.849l325.663-325.662c4.92-4.92 11.464-7.63 18.422-7.63s13.501 2.71 18.427 7.63l325.662 325.678a26.107 26.107 0 0 1 0 36.848 25.805 25.805 0 0 1-18.38 7.624h-0.031z" fill="#2C2C2C" p-id="3575"></path></svg>