<?xml version="1.0" standalone="no"?><!DOCTYPE svg PUBLIC "-//W3C//DTD SVG 1.1//EN" "http://www.w3.org/Graphics/SVG/1.1/DTD/svg11.dtd"><svg t="1560917138086" class="icon" style="" viewBox="0 0 1382 1024" version="1.1" xmlns="http://www.w3.org/2000/svg" p-id="3124" xmlns:xlink="http://www.w3.org/1999/xlink" width="269.921875" height="200"><defs><style type="text/css"></style></defs><path d="M 1148.46 0 H 234.323 A 234.589 234.589 0 0 0 0 234.323 V 789.677 a 234.589 234.589 0 0 0 234.323 234.323 h 914.137 A 234.589 234.589 0 0 0 1382.78 789.677 V 234.323 A 234.589 234.589 0 0 0 1148.46 0 Z m 32.0825 233.402 L 760.583 571.425 a 122.495 122.495 0 0 1 -76.2856 26.9845 h -0.225213 a 122.454 122.454 0 0 1 -76.1628 -26.616 L 202.343 247.734 a 30.7108 30.7108 0 1 1 38.3271 -47.9907 l 405.587 323.978 a 60.1931 60.1931 0 0 0 75.7533 -0.143317 L 1142.03 185.514 A 30.7108 30.7108 0 1 1 1180.54 233.402 Z" fill="#231815" p-id="3125"></path></svg>