<?xml version="1.0" standalone="no"?><!DOCTYPE svg PUBLIC "-//W3C//DTD SVG 1.1//EN" "http://www.w3.org/Graphics/SVG/1.1/DTD/svg11.dtd"><svg t="1560917144065" class="icon" style="" viewBox="0 0 1382 1024" version="1.1" xmlns="http://www.w3.org/2000/svg" p-id="3240" xmlns:xlink="http://www.w3.org/1999/xlink" width="269.921875" height="200"><defs><style type="text/css"></style></defs><path d="M 1148.46 0 H 234.323 A 234.589 234.589 0 0 0 0 234.323 V 789.677 a 234.589 234.589 0 0 0 234.323 234.323 h 914.137 A 234.589 234.589 0 0 0 1382.78 789.677 V 234.323 A 234.589 234.589 0 0 0 1148.46 0 Z m 152.428 789.677 a 152.592 152.592 0 0 1 -152.428 152.428 H 234.323 A 152.612 152.612 0 0 1 81.8954 789.677 V 234.323 A 152.612 152.612 0 0 1 234.323 81.8954 h 914.137 a 152.592 152.592 0 0 1 152.428 152.428 Z" fill="#231815" p-id="3241"></path><path d="M 1142.03 185.514 L 722.072 523.578 a 60.1931 60.1931 0 0 1 -75.7533 0.143317 L 240.67 199.661 A 30.7108 30.7108 0 1 0 202.343 247.734 l 405.567 323.978 a 122.454 122.454 0 0 0 76.1628 26.616 h 0.225213 a 122.495 122.495 0 0 0 76.2856 -26.9845 L 1180.54 233.402 a 30.7108 30.7108 0 1 0 -38.5113 -47.8884 Z" fill="#231815" p-id="3242"></path></svg>