<?xml version="1.0" standalone="no"?><!DOCTYPE svg PUBLIC "-//W3C//DTD SVG 1.1//EN" "http://www.w3.org/Graphics/SVG/1.1/DTD/svg11.dtd"><svg t="1560917087901" class="icon" style="" viewBox="0 0 1024 1024" version="1.1" xmlns="http://www.w3.org/2000/svg" p-id="2427" xmlns:xlink="http://www.w3.org/1999/xlink" width="200" height="200"><defs><style type="text/css"></style></defs><path d="M 1013.62 828.311 c -11.4547 -33.2495 -36.6239 -66.5609 -74.7649 -99.0673 c -33.3733 -28.4045 -76.7617 -55.9111 -125.506 -79.5325 a 821.593 821.593 0 0 0 -160.272 -57.7996 C 754.87 540.226 824.774 434.565 824.774 312.821 C 824.774 140.335 684.455 0 511.954 0 S 199.149 140.335 199.149 312.821 c 0 120.429 68.4184 225.161 168.414 277.419 a 787.57 787.57 0 0 0 -155.164 54.2548 C 152.866 672.636 47.9161 732.448 13.7224 816.856 C -8.14983 870.864 4.62056 924.685 49.7271 968.383 c 14.21 13.7611 46.4378 31.1288 170.643 43.5122 c 77.2415 7.73963 177.3 11.9964 281.723 12.1048 h 3.90077 c 103.402 0 203.073 -4.11749 281.042 -11.6404 c 127.271 -12.2596 162.532 -29.7512 178.012 -41.794 c 49.5491 -38.8839 66.8085 -89.3928 48.5739 -142.254 Z m -752.556 -515.46 c 0 -138.385 112.55 -250.934 250.888 -250.934 S 762.857 174.467 762.857 312.821 S 650.323 563.724 511.954 563.724 s -250.888 -112.565 -250.888 -250.903 Z m 665.748 608.954 c -2.19806 1.7182 -24.9061 17.151 -143.539 28.745 c -75.8484 7.41457 -173.77 11.5321 -275.67 11.563 h -1.54793 c -100.786 0 -197.732 -3.96269 -273.147 -11.176 c -116.497 -11.1296 -138.524 -25.8813 -140.258 -27.1816 c -27.0887 -26.3148 -33.9306 -52.9391 -21.5007 -83.588 c 18.9311 -46.7164 81.6377 -98.9125 167.764 -139.638 C 326.079 659.231 426.91 634.65 508.579 634.65 c 82.4581 0 186.293 26.485 277.76 70.8331 c 89.7798 43.5432 152.873 97.0086 168.724 143.044 c 5.99048 17.2439 9.48879 43.6515 -28.2497 73.2479 Z" fill="#231815" p-id="2428"></path><path d="M 628.652 422.971 A 23.2189 23.2189 0 1 0 595.774 390.078 a 118.68 118.68 0 0 1 -167.625 0 a 23.2189 23.2189 0 1 0 -32.8315 32.8315 a 165.164 165.164 0 0 0 233.288 0 Z" fill="#231815" p-id="2429"></path></svg>