<?xml version="1.0" standalone="no"?><!DOCTYPE svg PUBLIC "-//W3C//DTD SVG 1.1//EN" "http://www.w3.org/Graphics/SVG/1.1/DTD/svg11.dtd"><svg t="1560917049461" class="icon" style="" viewBox="0 0 1219 1024" version="1.1" xmlns="http://www.w3.org/2000/svg" p-id="1961" xmlns:xlink="http://www.w3.org/1999/xlink" width="238.0859375" height="200"><defs><style type="text/css"></style></defs><path d="M 1041.22 0 H 178.028 A 178.224 178.224 0 0 0 0 178.028 v 667.944 a 178.224 178.224 0 0 0 178.028 178.028 h 863.187 a 178.224 178.224 0 0 0 178.028 -178.028 V 178.028 a 178.224 178.224 0 0 0 -178.028 -178.028 Z m 106.817 845.972 a 106.941 106.941 0 0 1 -106.817 106.817 H 178.028 a 106.941 106.941 0 0 1 -106.817 -106.817 V 178.028 a 106.941 106.941 0 0 1 106.817 -106.817 h 863.187 a 106.941 106.941 0 0 1 106.817 106.817 Z" fill="#231815" p-id="1962"></path><path d="M 909.136 477.115 a 26.7042 26.7042 0 0 0 -37.7598 0 L 536.577 811.897 L 367.325 642.682 a 26.7042 26.7042 0 0 0 -37.7598 0 L 139.307 832.887 a 26.7042 26.7042 0 0 0 37.7776 37.7776 l 171.37 -171.37 l 169.251 169.251 a 26.7042 26.7042 0 0 0 37.7598 0 l 334.782 -334.693 L 1057.49 700.897 a 26.7042 26.7042 0 1 0 37.7598 -37.7598 Z M 461.36 474.605 a 106.247 106.247 0 1 0 -106.247 -106.247 a 106.372 106.372 0 0 0 106.247 106.247 Z m 0 -159.086 a 52.8387 52.8387 0 1 1 -52.8387 52.8387 a 52.91 52.91 0 0 1 52.8387 -52.8387 Z" fill="#231815" p-id="1963"></path></svg>