<?xml version="1.0" standalone="no"?><!DOCTYPE svg PUBLIC "-//W3C//DTD SVG 1.1//EN" "http://www.w3.org/Graphics/SVG/1.1/DTD/svg11.dtd"><svg t="1560916483156" class="icon" style="" viewBox="0 0 1024 1024" version="1.1" xmlns="http://www.w3.org/2000/svg" p-id="2696" xmlns:xlink="http://www.w3.org/1999/xlink" width="200" height="200"><defs><style type="text/css"></style></defs><path d="M896 584.045V232a8 8 0 0 0-8-8H136a8 8 0 0 0-8 8v412.596l112.496-110.862c12.437-12.257 32.404-12.28 44.87-0.052l113.38 111.217a8 8 0 0 0 11.261-0.058l250.62-250.914c12.49-12.503 32.752-12.514 45.255-0.024l0.012 0.012-0.012 0.012L896 584.045z m0 90.51L689.044 467.599a8 8 0 0 0-11.296-0.017L426.896 716.906c-12.455 12.378-32.557 12.408-45.049 0.067L268.562 605.048a8 8 0 0 0-11.28 0.034L128 734.365V792a8 8 0 0 0 8 8h752a8 8 0 0 0 8-8V674.555zM96 160h832c17.673 0 32 14.327 32 32v640c0 17.673-14.327 32-32 32H96c-17.673 0-32-14.327-32-32V192c0-17.673 14.327-32 32-32z m191 314c-57.99 0-105-47.01-105-105s47.01-105 105-105 105 47.01 105 105-47.01 105-105 105z m0-64c22.644 0 41-18.356 41-41s-18.356-41-41-41-41 18.356-41 41 18.356 41 41 41z" p-id="2697"></path></svg>