<?xml version="1.0" standalone="no"?><!DOCTYPE svg PUBLIC "-//W3C//DTD SVG 1.1//EN" "http://www.w3.org/Graphics/SVG/1.1/DTD/svg11.dtd"><svg t="1560850878938" class="icon" style="" viewBox="0 0 1024 1024" version="1.1" xmlns="http://www.w3.org/2000/svg" p-id="2232" xmlns:xlink="http://www.w3.org/1999/xlink" width="200" height="200"><defs><style type="text/css"></style></defs><path d="M512 960C264.576 960 64 759.424 64 512S264.576 64 512 64s448 200.576 448 448-200.576 448-448 448z m0-64c212.077 0 384-171.923 384-384S724.077 128 512 128 128 299.923 128 512s171.923 384 384 384zM319 442c-26.51 0-48-21.49-48-48s21.49-48 48-48 48 21.49 48 48-21.49 48-48 48z m387 0c-26.51 0-48-21.49-48-48s21.49-48 48-48 48 21.49 48 48-21.49 48-48 48zM270.731 684.976c54.93-82.166 130.802-136.008 240.137-136.008 109.335 0 185.242 53.842 240.138 136.008a30.646 30.646 0 0 1 1.965 30.6 30.685 30.685 0 0 1-25.536 17.001 30.69 30.69 0 0 1-27.502-13.6c-44.653-66.741-103.757-108.665-189.065-108.665-85.307 0-144.412 41.924-189.065 108.666-9.564 13.646-28.281 17.167-42.156 7.93-13.875-9.238-17.834-27.855-8.916-41.932z" p-id="2233"></path></svg>