<?xml version="1.0" standalone="no"?><!DOCTYPE svg PUBLIC "-//W3C//DTD SVG 1.1//EN" "http://www.w3.org/Graphics/SVG/1.1/DTD/svg11.dtd"><svg t="1560917071672" class="icon" style="" viewBox="0 0 1024 1024" version="1.1" xmlns="http://www.w3.org/2000/svg" p-id="2194" xmlns:xlink="http://www.w3.org/1999/xlink" width="200" height="200"><defs><style type="text/css"></style></defs><path d="M 993.012 30.9604 C 962.872 0.835931 918.289 -8.09615 876.725 7.7401 L 77.126 311.152 C 29.8805 328.985 -0.383336 372.717 0.003669 422.455 c 0.371525 45.6666 26.951 83.5931 69.3823 98.903 l 299.341 108.176 a 42.2145 42.2145 0 0 1 25.7436 25.7591 l 108.176 299.325 c 15.3409 42.4312 53.2364 69.0262 98.9185 69.3823 h 0.959772 c 49.3354 0 92.6181 -30.1709 110.42 -77.1224 l 303.412 -799.583 C 1032.12 105.714 1023.25 61.1623 993.012 30.9604 Z m -34.5673 94.4292 l -303.412 799.583 a 56.2241 56.2241 0 0 1 -52.6327 37.1525 h -0.387005 c -9.28812 0 -31.9666 -2.98768 -41.1773 -28.4991 l -108.129 -299.387 a 105.018 105.018 0 0 0 -9.87637 -20.2171 l 299.17 -299.17 a 23.2203 23.2203 0 1 0 -32.849 -32.8335 L 409.997 581.173 a 105.59 105.59 0 0 0 -20.2326 -9.87637 L 90.439 463.137 c -25.5114 -9.28812 -28.4371 -31.8737 -28.5145 -41.1773 a 56.2241 56.2241 0 0 1 37.1525 -53.0042 l 799.599 -303.412 A 53.7627 53.7627 0 0 1 917.794 61.9208 a 43.809 43.809 0 0 1 31.4403 12.864 c 12.8795 12.895 16.3316 31.7809 9.21072 50.6048 Z" fill="#231815" p-id="2195"></path></svg>