<?xml version="1.0" standalone="no"?><!DOCTYPE svg PUBLIC "-//W3C//DTD SVG 1.1//EN" "http://www.w3.org/Graphics/SVG/1.1/DTD/svg11.dtd"><svg t="1561108650428" class="icon" style="" viewBox="0 0 1024 1024" version="1.1" xmlns="http://www.w3.org/2000/svg" p-id="2096" xmlns:xlink="http://www.w3.org/1999/xlink" width="200" height="200"><defs><style type="text/css"></style></defs><path d="M 1021.82 378.727 L 970.787 133.888 a 104.003 104.003 0 0 0 -80.6591 -80.6591 L 645.273 2.2236 a 103.718 103.718 0 0 0 -94.8139 28.2781 L 30.4765 550.547 a 104.034 104.034 0 0 0 0 147.084 l 295.892 295.94 a 104.145 104.145 0 0 0 147.084 0 l 520.093 -520.03 a 103.766 103.766 0 0 0 28.2781 -94.8139 Z M 776.541 398.117 a 106.47 106.47 0 1 1 0 -150.579 a 106.486 106.486 0 0 1 0 150.579 Z" fill="#231815" p-id="2097"></path></svg>