<?xml version="1.0" standalone="no"?><!DOCTYPE svg PUBLIC "-//W3C//DTD SVG 1.1//EN" "http://www.w3.org/Graphics/SVG/1.1/DTD/svg11.dtd"><svg t="1561106430311" class="icon" style="" viewBox="0 0 1024 1024" version="1.1" xmlns="http://www.w3.org/2000/svg" p-id="1970" xmlns:xlink="http://www.w3.org/1999/xlink" width="200" height="200"><defs><style type="text/css"></style></defs><path d="M 1021.82 378.727 L 970.787 133.888 a 104.003 104.003 0 0 0 -80.6591 -80.6591 L 645.273 2.2236 a 103.718 103.718 0 0 0 -94.8139 28.2781 L 30.4765 550.547 a 104.034 104.034 0 0 0 0 147.084 l 295.892 295.94 a 104.145 104.145 0 0 0 147.084 0 l 520.093 -520.03 a 103.766 103.766 0 0 0 28.2781 -94.8139 Z m -73.0202 50.0719 L 428.774 948.845 a 40.8514 40.8514 0 0 1 -57.6791 0 L 75.2027 652.952 a 40.804 40.804 0 0 1 0 -57.6791 L 595.248 75.2438 a 40.63 40.63 0 0 1 37.1506 -11.0709 l 244.856 51.0208 a 40.7249 40.7249 0 0 1 31.631 31.631 l 51.0366 244.856 a 40.6458 40.6458 0 0 1 -11.1183 37.119 Z" fill="#231815" p-id="1971"></path><path d="M 609.166 230.758 a 130.193 130.193 0 1 0 184.124 0 a 130.336 130.336 0 0 0 -184.124 0 Z m 150.579 150.579 a 82.7151 82.7151 0 1 1 0 -117.035 a 82.8574 82.8574 0 0 1 0 117.035 Z" fill="#231815" p-id="1972"></path></svg>